<svg xmlns="http://www.w3.org/2000/svg" xmlns:svg="http://www.w3.org/2000/svg" id="svg2" width="128" height="128" version="1.1"><metadata id="metadata7"/><g id="layer1" transform="translate(0,-924.36218)"><path id="path2987" fill="#323e56" fill-opacity="1" fill-rule="nonzero" stroke="none" d="M 36.53125 6.1875 C 14.931315 16.467669 0 38.485908 0 64 C 0 99.346224 28.653776 128 64 128 C 14.531697 81.829584 3.1418965 24.79152 36.53125 6.1875 z M 64 128 C 99.346224 128 128 99.346224 128 64 C 128 38.485908 113.06868 16.467669 91.46875 6.1875 C 124.8581 24.79152 113.4683 81.829584 64 128 z" transform="translate(0,924.36218)"/><path id="path5263" fill="#323e56" fill-opacity="1" fill-rule="nonzero" stroke="none" d="M 88,18 C 88,27.941125 79.941125,36 70,36 60.058875,36 52,27.941125 52,18 52,8.0588745 60.058875,0 70,0 79.941125,0 88,8.0588745 88,18 z" transform="matrix(1.3142697,0,0,1.3142697,-27.998878,934.52855)"/></g></svg>