<svg xmlns="http://www.w3.org/2000/svg" xmlns:svg="http://www.w3.org/2000/svg" id="svg2" width="128" height="128" version="1.1"><metadata id="metadata7"/><g id="layer1" transform="translate(0,-924.36218)"><path id="path2987" fill="#323e56" fill-opacity="1" fill-rule="nonzero" stroke="none" d="m 100,58 a 40,40 0 1 1 -80,0 40,40 0 1 1 80,0 z" transform="matrix(1.6,0,0,1.6,-32,895.56218)"/><g id="g4593" transform="matrix(1.0144451,0,0,1.0144451,-4.2606775,-9.0363354)"><circle id="circle4" cx="490" cy="490" r="440" fill="none" stroke="#79c1c0" stroke-opacity="1" stroke-width="100" d="M 930,490 C 930,733.00529 733.00529,930 490,930 246.99471,930 50,733.00529 50,490 50,246.99471 246.99471,50 490,50 733.00529,50 930,246.99471 930,490 z" transform="matrix(0.07958063,0,0,0.07958063,28.294177,944.20164)"/><path id="path6" fill="#fff" fill-opacity="1" d="m 66.970367,961.31146 c -10.345484,0 -19.019774,7.24184 -21.248031,16.95066 l 10.425062,0 c 1.909936,-4.13819 6.04813,-7.00307 10.822969,-7.00307 6.605191,0 11.937092,5.33187 11.937092,11.93709 0,6.60511 -5.331901,11.93701 -11.937092,11.93701 -4.774839,0 -8.913033,-2.86472 -10.822969,-6.92341 l -10.425062,0 c 2.228257,9.62927 10.902547,16.87106 21.248031,16.87106 12.096254,0 21.884676,-9.78839 21.884676,-21.88466 0,-12.09626 -9.788422,-21.88468 -21.884676,-21.88468 z"/></g></g></svg>